<svg width="512" height="473" viewBox="0 0 512 473" fill="none" xmlns="http://www.w3.org/2000/svg">
<path d="M0 433.231C0 454.981 17.6345 472.615 39.3846 472.615H472.615C494.366 472.615 512 454.981 512 433.231V39.3846C512 17.6345 494.366 0 472.615 0H39.3846C17.6345 0 0 17.6345 0 39.3846V433.231ZM19.6923 39.3846C19.6923 28.5071 28.5071 19.6923 39.3846 19.6923H472.615C483.493 19.6923 492.308 28.5071 492.308 39.3846V433.231C492.308 444.108 483.493 452.923 472.615 452.923H39.3846C28.5071 452.923 19.6923 444.108 19.6923 433.231V39.3846Z" fill="#F73859"/>
<path d="M39.3838 39.3848H59.0761V59.0771H39.3838V39.3848Z" fill="#F73859"/>
<path d="M78.7695 39.3848H98.4618V59.0771H78.7695V39.3848Z" fill="#F73859"/>
<path d="M118.153 39.3848H137.846V59.0771H118.153V39.3848Z" fill="#F73859"/>
<path d="M39.3838 78.7686H472.615V98.4609H39.3838V78.7686Z" fill="#F73859"/>
<path d="M39.3838 128H118.153V147.692H39.3838V128Z" fill="#F73859"/>
<path d="M39.3838 167.385H98.4607V187.077H39.3838V167.385Z" fill="#F73859"/>
<path d="M255.999 206.77C217.932 206.77 187.076 237.625 187.076 275.693C187.076 313.761 217.932 344.616 255.999 344.616C294.067 344.616 324.922 313.761 324.922 275.693C324.878 237.648 294.045 206.814 255.999 206.77ZM255.999 324.924C228.812 324.924 206.768 302.881 206.768 275.693C206.768 248.505 228.812 226.462 255.999 226.462C283.187 226.462 305.23 248.505 305.23 275.693C305.196 302.868 283.175 324.889 255.999 324.924Z" fill="#F73859"/>
<path d="M413.54 246.153C413.54 240.713 409.134 236.307 403.694 236.307H377.67C375.585 229.838 372.986 223.544 369.882 217.501L388.284 199.111C392.124 195.263 392.124 189.033 388.284 185.186L346.507 143.409C342.66 139.569 336.43 139.569 332.582 143.409L314.192 161.801C308.139 158.71 301.85 156.11 295.386 154.023V127.999C295.386 122.559 290.98 118.153 285.54 118.153H226.463C221.023 118.153 216.617 122.559 216.617 127.999V154.023C210.153 156.11 203.864 158.71 197.811 161.801L179.42 143.409C175.573 139.569 169.343 139.569 165.496 143.409L123.718 185.186C119.878 189.033 119.878 195.263 123.718 199.111L142.111 217.501C141.289 219.113 140.496 220.731 139.748 222.365C137.67 226.904 135.864 231.556 134.332 236.307H108.309C102.869 236.307 98.4629 240.713 98.4629 246.153V305.23C98.4629 310.67 102.869 315.076 108.309 315.076H134.332C136.417 321.545 139.017 327.839 142.121 333.883L123.718 352.273C119.878 356.12 119.878 362.35 123.718 366.198L165.496 407.975C169.343 411.815 175.573 411.815 179.42 407.975L197.811 389.582C203.864 392.674 210.153 395.273 216.617 397.361V423.384C216.617 428.824 221.023 433.23 226.463 433.23H285.54C290.98 433.23 295.386 428.824 295.386 423.384V397.361C301.85 395.273 308.139 392.674 314.192 389.582L332.582 407.975C336.43 411.815 342.66 411.815 346.507 407.975L388.284 366.198C392.124 362.35 392.124 356.12 388.284 352.273L369.882 333.883C372.986 327.839 375.585 321.545 377.67 315.076H403.694C409.134 315.076 413.54 310.67 413.54 305.23V246.153ZM393.848 295.384H370.276C365.786 295.384 361.867 298.424 360.745 302.769C358.229 312.541 354.352 321.919 349.225 330.614C346.943 334.478 347.571 339.401 350.741 342.577L367.388 359.234L339.544 387.091L322.886 370.431C319.708 367.256 314.785 366.631 310.918 368.915C302.224 374.043 292.851 377.922 283.078 380.435C278.734 381.558 275.694 385.476 275.694 389.966V413.538H236.309V389.966C236.309 385.476 233.269 381.558 228.924 380.435C219.152 377.922 209.779 374.043 201.084 368.915C197.217 366.631 192.294 367.256 189.116 370.431L172.459 387.091L144.614 359.234L161.262 342.577C164.432 339.401 165.06 334.478 162.778 330.614C157.651 321.919 153.774 312.541 151.258 302.769C150.136 298.424 146.217 295.384 141.727 295.384H118.155V255.999H141.727C146.217 255.999 150.136 252.959 151.258 248.615C152.848 242.417 154.992 236.381 157.66 230.569C159.199 227.199 160.907 223.913 162.778 220.723C165.052 216.856 164.43 211.94 161.262 208.767L144.614 192.11L172.459 164.253L189.116 180.918C192.294 184.093 197.217 184.713 201.084 182.427C209.779 177.304 219.152 173.42 228.924 170.907C233.269 169.787 236.309 165.863 236.309 161.38V137.846H275.694V161.417C275.694 165.907 278.734 169.826 283.078 170.948C292.851 173.462 302.224 177.341 310.918 182.468C314.785 184.753 319.708 184.127 322.886 180.952L339.544 164.292L367.388 192.15L350.741 208.807C347.571 211.982 346.943 216.905 349.225 220.77C354.352 229.464 358.229 238.843 360.745 248.615C361.867 252.959 365.786 255.999 370.276 255.999H393.848V295.384Z" fill="#F73859"/>
<path d="M413.54 413.538H472.617V433.23H413.54V413.538Z" fill="#F73859"/>
</svg>
