<svg width="512" height="408" viewBox="0 0 512 408" fill="none" xmlns="http://www.w3.org/2000/svg">
<path d="M74.1041 407.414H474.234C495.059 407.414 512 390.473 512 369.648V44.3356C512 19.8887 492.111 0 467.664 0H44.3356C19.8887 0 0 19.8887 0 44.3356V369.648C0 390.473 16.9413 407.414 37.7657 407.414H40.1671C44.8589 407.414 48.6627 403.61 48.6627 398.918C48.6627 394.226 44.8589 390.423 40.1671 390.423H37.7657C26.3102 390.423 16.9912 381.104 16.9912 369.648V44.3356C16.9912 29.2576 29.2576 16.9912 44.3356 16.9912H284.818V390.423H74.1041C69.4122 390.423 65.6085 394.226 65.6085 398.918C65.6085 403.61 69.4122 407.414 74.1041 407.414V407.414ZM301.809 16.9912H467.664C482.742 16.9912 495.009 29.2576 495.009 44.3356V369.648C495.009 381.104 485.69 390.423 474.234 390.423H301.809V16.9912Z" fill="#F73859"/>
<path d="M50.352 76.6494H80.7435C85.4353 76.6494 89.2391 72.8456 89.2391 68.1538C89.2391 63.462 85.4353 59.6582 80.7435 59.6582H50.352C45.6602 59.6582 41.8564 63.462 41.8564 68.1538C41.8564 72.8456 45.6602 76.6494 50.352 76.6494Z" fill="#F73859"/>
<path d="M255.999 59.6582H207.373C202.681 59.6582 198.877 63.462 198.877 68.1538C198.877 72.8456 202.681 76.6494 207.373 76.6494H255.999C260.691 76.6494 264.495 72.8456 264.495 68.1538C264.495 63.462 260.691 59.6582 255.999 59.6582Z" fill="#F73859"/>
<path d="M183.059 59.6582H106.069C101.377 59.6582 97.5732 63.462 97.5732 68.1538C97.5732 72.8456 101.377 76.6494 106.069 76.6494H183.059C187.751 76.6494 191.555 72.8456 191.555 68.1538C191.555 63.462 187.751 59.6582 183.059 59.6582Z" fill="#F73859"/>
<path d="M50.352 124.113H130.381C135.073 124.113 138.877 120.309 138.877 115.617C138.877 110.925 135.073 107.122 130.381 107.122H50.352C45.6602 107.122 41.8564 110.925 41.8564 115.617C41.8564 120.309 45.6602 124.113 50.352 124.113V124.113Z" fill="#F73859"/>
<path d="M256.002 107.122H231.689C226.997 107.122 223.193 110.925 223.193 115.617C223.193 120.309 226.997 124.113 231.689 124.113H256.002C260.694 124.113 264.498 120.309 264.498 115.617C264.498 110.925 260.694 107.122 256.002 107.122Z" fill="#F73859"/>
<path d="M147.213 115.617C147.213 120.309 151.017 124.113 155.708 124.113H207.373C212.065 124.113 215.868 120.309 215.868 115.617C215.868 110.925 212.065 107.122 207.373 107.122H155.708C151.017 107.122 147.213 110.925 147.213 115.617Z" fill="#F73859"/>
<path d="M50.352 171.573H80.7435C85.4353 171.573 89.2391 167.769 89.2391 163.077C89.2391 158.385 85.4353 154.582 80.7435 154.582H50.352C45.6602 154.582 41.8564 158.385 41.8564 163.077C41.8564 167.769 45.6602 171.573 50.352 171.573Z" fill="#F73859"/>
<path d="M255.999 154.582H207.373C202.681 154.582 198.877 158.385 198.877 163.077C198.877 167.769 202.681 171.573 207.373 171.573H255.999C260.691 171.573 264.495 167.769 264.495 163.077C264.495 158.385 260.691 154.582 255.999 154.582Z" fill="#F73859"/>
<path d="M183.059 171.573C187.751 171.573 191.555 167.769 191.555 163.077C191.555 158.385 187.751 154.582 183.059 154.582H106.069C101.377 154.582 97.5732 158.385 97.5732 163.077C97.5732 167.769 101.377 171.573 106.069 171.573H183.059Z" fill="#F73859"/>
<path d="M50.352 219.036H68.5869C73.2787 219.036 77.0825 215.232 77.0825 210.54C77.0825 205.849 73.2787 202.045 68.5869 202.045H50.352C45.6602 202.045 41.8564 205.849 41.8564 210.54C41.8564 215.232 45.6602 219.036 50.352 219.036Z" fill="#F73859"/>
<path d="M255.997 202.045H160.772C156.08 202.045 152.276 205.849 152.276 210.54C152.276 215.232 156.08 219.036 160.772 219.036H255.997C260.689 219.036 264.493 215.232 264.493 210.54C264.493 205.849 260.689 202.045 255.997 202.045Z" fill="#F73859"/>
<path d="M85.4199 210.54C85.4199 215.232 89.2237 219.036 93.9155 219.036H136.464C141.155 219.036 144.959 215.232 144.959 210.54C144.959 205.849 141.155 202.045 136.464 202.045H93.9155C89.2237 202.045 85.4199 205.849 85.4199 210.54Z" fill="#F73859"/>
<path d="M50.352 266.499H65.5478C70.2396 266.499 74.0433 262.696 74.0433 258.004C74.0433 253.312 70.2396 249.508 65.5478 249.508H50.352C45.6602 249.508 41.8564 253.312 41.8564 258.004C41.8564 262.696 45.6602 266.499 50.352 266.499Z" fill="#F73859"/>
<path d="M256.002 249.508H231.689C226.997 249.508 223.193 253.312 223.193 258.004C223.193 262.696 226.997 266.499 231.689 266.499H256.002C260.694 266.499 264.498 262.696 264.498 258.004C264.498 253.312 260.694 249.508 256.002 249.508Z" fill="#F73859"/>
<path d="M82.3799 258.004C82.3799 262.696 86.1836 266.499 90.8755 266.499H207.375C212.067 266.499 215.87 262.696 215.87 258.004C215.87 253.312 212.067 249.508 207.375 249.508H90.8755C86.1836 249.508 82.3799 253.312 82.3799 258.004V258.004Z" fill="#F73859"/>
<path d="M368.495 164.689C365.177 161.371 359.797 161.371 356.481 164.689L323.469 197.7C321.875 199.293 320.98 201.454 320.98 203.707C320.98 205.96 321.875 208.121 323.469 209.714L356.481 242.724C358.139 244.383 360.314 245.213 362.488 245.213C364.661 245.213 366.836 244.384 368.495 242.724C371.812 239.407 371.812 234.027 368.495 230.711L341.491 203.707L368.495 176.704C371.812 173.386 371.812 168.006 368.495 164.689V164.689Z" fill="#F73859"/>
<path d="M438.562 164.689C435.244 161.371 429.865 161.371 426.548 164.689C423.23 168.006 423.23 173.386 426.548 176.702L453.551 203.706L426.548 230.709C423.23 234.027 423.23 239.407 426.548 242.723C428.206 244.383 430.381 245.212 432.555 245.212C434.729 245.212 436.903 244.383 438.562 242.723L471.573 209.713C473.167 208.12 474.062 205.959 474.062 203.706C474.062 201.453 473.167 199.292 471.573 197.699L438.562 164.689Z" fill="#F73859"/>
<path d="M410.626 143.455C406.051 142.406 401.495 145.267 400.449 149.841L376.666 253.781C375.619 258.355 378.48 262.911 383.052 263.957C383.69 264.103 384.327 264.173 384.956 264.173C388.828 264.173 392.329 261.506 393.229 257.57L417.012 153.63C418.059 149.057 415.2 144.5 410.626 143.455V143.455Z" fill="#F73859"/>
</svg>
