<svg width="512" height="452" viewBox="0 0 512 452" fill="none" xmlns="http://www.w3.org/2000/svg">
<path d="M202.008 328.613C200.074 328.613 198.126 327.947 196.536 326.594L141.838 280.018C139.951 278.41 138.866 276.061 138.866 273.58C138.866 271.103 139.956 268.754 141.838 267.146L196.536 220.57C200.088 217.542 205.423 217.971 208.451 221.523C211.475 225.08 211.05 230.414 207.494 233.438L160.357 273.58L207.494 313.721C211.05 316.749 211.475 322.084 208.451 325.636C206.777 327.603 204.399 328.613 202.008 328.613Z" fill="#F73859"/>
<path d="M309.994 328.613C307.603 328.613 305.225 327.603 303.555 325.636C300.527 322.084 300.956 316.749 304.508 313.721L351.645 273.58L304.508 233.438C300.956 230.414 300.527 225.08 303.555 221.523C306.579 217.971 311.919 217.542 315.466 220.57L370.164 267.146C372.051 268.754 373.136 271.103 373.136 273.58C373.136 276.061 372.051 278.41 370.164 280.018L315.466 326.594C313.876 327.947 311.928 328.613 309.994 328.613V328.613Z" fill="#F73859"/>
<path d="M236.636 363.548C236.056 363.548 235.471 363.487 234.881 363.365C230.315 362.402 227.391 357.916 228.353 353.35L262.443 191.497C263.405 186.931 267.886 184.006 272.457 184.968C277.023 185.931 279.947 190.412 278.985 194.982L244.896 356.836C244.056 360.817 240.546 363.548 236.636 363.548V363.548Z" fill="#F73859"/>
<path d="M455.245 451.726H56.7547C25.4623 451.726 0 426.269 0 394.972V56.7547C0 25.4623 25.4623 0 56.7547 0H455.245C486.538 0 512 25.4623 512 56.7547V394.972C512 426.269 486.538 451.726 455.245 451.726ZM56.7547 16.9057C34.783 16.9057 16.9057 34.783 16.9057 56.7547V394.972C16.9057 416.943 34.783 434.821 56.7547 434.821H455.245C477.217 434.821 495.094 416.943 495.094 394.972V56.7547C495.094 34.783 477.217 16.9057 455.245 16.9057H56.7547Z" fill="#F73859"/>
<path d="M503.547 135.356H8.45283C3.78302 135.356 0 131.573 0 126.903C0 122.238 3.78302 118.45 8.45283 118.45H503.547C508.217 118.45 512 122.238 512 126.903C512 131.573 508.217 135.356 503.547 135.356Z" fill="#F73859"/>
<path d="M144.423 94.9048C129.678 94.9048 117.673 82.9001 117.673 68.1548C117.673 53.4048 129.678 41.4048 144.423 41.4048C159.173 41.4048 171.173 53.4048 171.173 68.1548C171.173 82.9001 159.173 94.9048 144.423 94.9048ZM144.423 58.3104C138.998 58.3104 134.579 62.7255 134.579 68.1548C134.579 73.584 138.998 77.9991 144.423 77.9991C149.852 77.9991 154.267 73.584 154.267 68.1548C154.267 62.7255 149.852 58.3104 144.423 58.3104Z" fill="#F73859"/>
<path d="M62.2363 94.645C47.4863 94.645 35.4863 82.645 35.4863 67.895C35.4863 53.145 47.4863 41.145 62.2363 41.145C76.9863 41.145 88.9863 53.145 88.9863 67.895C88.9863 82.645 76.9863 94.645 62.2363 94.645ZM62.2363 58.0507C56.8118 58.0507 52.392 62.4705 52.392 67.895C52.392 73.3243 56.8118 77.7394 62.2363 77.7394C67.6656 77.7394 72.0807 73.3243 72.0807 67.895C72.0807 62.4705 67.6656 58.0507 62.2363 58.0507Z" fill="#F73859"/>
<path d="M226.615 95.1603C211.87 95.1603 199.87 83.1603 199.87 68.4103C199.87 53.665 211.87 41.665 226.615 41.665C241.365 41.665 253.365 53.665 253.365 68.4103C253.365 83.1603 241.365 95.1603 226.615 95.1603ZM226.615 58.566C221.191 58.566 216.776 62.9811 216.776 68.4103C216.776 73.8396 221.191 78.2547 226.615 78.2547C232.045 78.2547 236.46 73.8396 236.46 68.4103C236.46 62.9811 232.045 58.566 226.615 58.566Z" fill="#F73859"/>
</svg>
