<svg width="460" height="460" viewBox="0 0 460 460" fill="none" xmlns="http://www.w3.org/2000/svg">
<path d="M230 0C103.113 0 0 103.113 0 230C0 356.887 103.113 460 230 460C356.887 460 460 356.887 460 230C460 103.113 356.887 0 230 0ZM230 20C346.073 20 440 113.927 440 230C440 230.714 439.948 231.417 439.941 232.129C433.545 231.539 426.155 230.978 416.758 230.645C403.471 230.173 386.723 230.31 367.734 231.25C368.439 226.347 368.932 221.374 368.945 216.27C369.914 197.543 363.625 180.025 353.398 164.551C355.869 156.014 358.767 145.152 359.492 132.832C360.318 118.789 359.106 103.218 347.832 92.6953L344.941 90H340.996C314.165 90 295.8 101.232 284.57 110.137C268.355 103.86 250.122 100 230 100C209.764 100 191.355 103.914 174.473 110.176C163.249 101.267 144.868 90 118.008 90H114.082L111.191 92.6758C100.21 102.873 99.1978 118.018 99.8828 131.992C100.487 144.315 103.217 155.521 105.645 164.473C95.2449 180.249 89.0039 198.22 89.0039 215.996C89.0039 221.112 89.4797 226.101 90.1758 231.016C72.1182 230.178 56.021 230.017 43.2422 230.469C33.8451 230.801 26.4544 231.357 20.0586 231.953C20.0526 231.3 20 230.655 20 230C20 113.927 113.927 20 230 20ZM123.965 111.309C144.141 113.22 159.32 122.23 166.348 128.477L171.035 132.617L176.816 130.254C192.631 123.742 210.27 120 230 120C249.73 120 267.374 123.761 281.992 130.156L287.852 132.734L292.637 128.477C299.667 122.228 314.872 113.216 335.059 111.309C337.743 115.758 340.075 122.087 339.512 131.66C338.838 143.117 335.773 155.597 333.457 163.008L331.953 167.832L334.941 171.914C344.836 185.407 349.881 200.009 349.023 215.449L349.004 215.723V215.996C349.004 240.951 340.018 260.923 320.879 275.723C301.74 290.522 271.527 300 229.004 300C186.481 300 156.248 290.522 137.109 275.723C117.97 260.923 109.004 240.951 109.004 215.996C109.004 201.349 114.293 185.236 124.062 171.914L126.992 167.93L125.586 163.184C123.269 155.305 120.428 142.541 119.863 131.016C119.393 121.429 121.662 115.37 123.965 111.309ZM68.8477 240.215C75.9146 240.305 84.0146 240.687 92.1289 241.094C92.9042 244.212 93.7882 247.279 94.8633 250.273C61.7897 250.971 37.0473 254.297 21.7969 257.148C21.1521 252.145 20.6385 247.1 20.3516 241.992C31.6221 240.923 47.51 239.942 68.8477 240.215ZM391.152 240.371C412.475 240.1 428.357 241.082 439.629 242.148C439.342 247.183 438.837 252.157 438.203 257.09C422.408 254.192 396.997 250.867 363.066 250.332C364.119 247.397 364.996 244.382 365.762 241.328C374.713 240.848 383.446 240.469 391.152 240.371ZM99.1211 260.195C105.088 272.153 113.615 282.83 124.883 291.543C140.288 303.455 160.316 311.778 184.766 316.23C181.567 319.517 178.658 323.126 176.074 326.934L175.469 326.406C175.524 326.343 170.498 328.859 162.988 329.531C155.479 330.204 146.216 330 138.008 330C125.758 330 120.362 324.212 111.738 313.672C106.963 307.236 101.141 302.023 95.4883 298.066C89.7002 294.015 84.7626 291.155 78.6523 290.137L77.832 290H76.9922C72.3255 290 67.8098 290.338 63.5938 295.156C61.4857 297.565 60.0328 302.026 60.9766 305.801C61.9204 309.576 64.3086 311.896 66.4453 313.32C80.1125 322.432 82.5279 340.465 91.0938 356.504C99.093 372.443 116.357 380 134.004 380H160V428.027C89.6781 403.205 36.6468 342.046 23.3203 267.031C38.6293 264.148 64.2654 260.681 99.1211 260.195ZM358.828 260.273C394.455 260.578 420.81 264.041 436.699 266.973C423.39 342.015 370.341 403.199 300 428.027V375.996C300 360.15 294.796 342.677 285.742 328.105C282.993 323.681 279.759 319.497 276.152 315.742C299.305 311.168 318.324 302.988 333.125 291.543C344.368 282.849 352.876 272.204 358.828 260.273ZM216.992 320.996H245C253.128 320.996 261.804 327.474 268.75 338.652C275.696 349.831 280 364.842 280 375.996V433.984C263.974 437.892 247.238 440 230 440C212.762 440 196.026 437.892 180 433.984V375.996C180 365.089 184.678 350.113 192.09 338.887C199.501 327.66 208.864 320.996 216.992 320.996ZM103.086 332.812C111.744 341.793 122.225 350 138.008 350C145.799 350 155.525 350.281 164.766 349.453C164.798 349.45 164.83 349.437 164.863 349.434C163.646 352.934 162.737 356.455 161.973 360H134.004C121.671 360 112.958 355.544 108.945 347.52L108.867 347.383L108.809 347.266C107.165 344.212 105.006 338.106 103.086 332.812Z" fill="#F73859"/>
</svg>
