<svg width="440" height="440" viewBox="0 0 440 440" fill="none" xmlns="http://www.w3.org/2000/svg">
<path d="M130 0C58.3248 0 0 58.3248 0 130V310C0 381.675 58.3248 440 130 440H310C381.675 440 440 381.675 440 310V130C440 58.3248 381.675 0 310 0H130ZM130 20H310C370.865 20 420 69.1352 420 130V310C420 370.865 370.865 420 310 420H130C69.1352 420 20 370.865 20 310V130C20 69.1352 69.1352 20 130 20ZM340 80C334.696 80 329.609 82.1071 325.858 85.8579C322.107 89.6086 320 94.6957 320 100C320 105.304 322.107 110.391 325.858 114.142C329.609 117.893 334.696 120 340 120C345.304 120 350.391 117.893 354.142 114.142C357.893 110.391 360 105.304 360 100C360 94.6957 357.893 89.6086 354.142 85.8579C350.391 82.1071 345.304 80 340 80ZM220 110C159.367 110 110 159.367 110 220C110 280.633 159.367 330 220 330C280.633 330 330 280.633 330 220C330 159.367 280.633 110 220 110ZM220 130C269.824 130 310 170.176 310 220C310 269.824 269.824 310 220 310C170.176 310 130 269.824 130 220C130 170.176 170.176 130 220 130Z" fill="#F73859"/>
</svg>
