<svg width="512" height="512" viewBox="0 0 512 512" fill="none" xmlns="http://www.w3.org/2000/svg">
<path d="M429.294 107.645C429.294 124.569 415.572 138.29 398.645 138.29C381.722 138.29 368 124.569 368 107.645C368 90.718 381.722 77 398.645 77C415.572 77 429.294 90.718 429.294 107.645Z" fill="#F73859"/>
<path d="M373.406 0H138.594C62.1719 0 0 62.1719 0 138.594V373.41C0 449.828 62.1719 512 138.594 512H373.41C449.828 512 512 449.828 512 373.41V138.594C512 62.1719 449.828 0 373.406 0V0ZM481.984 373.41C481.984 433.277 433.277 481.984 373.406 481.984H138.594C78.7227 481.984 30.0156 433.277 30.0156 373.41V138.594C30.0156 78.7227 78.7227 30.0156 138.594 30.0156H373.41C433.277 30.0156 481.984 78.7227 481.984 138.594V373.41Z" fill="#F73859"/>
<path d="M256 116.004C178.805 116.004 116.004 178.805 116.004 256C116.004 333.195 178.805 395.996 256 395.996C333.195 395.996 395.996 333.195 395.996 256C395.996 178.805 333.195 116.004 256 116.004V116.004ZM256 365.98C195.359 365.98 146.02 316.645 146.02 256C146.02 195.359 195.359 146.02 256 146.02C316.645 146.02 365.98 195.359 365.98 256C365.98 316.645 316.645 365.98 256 365.98V365.98Z" fill="#F73859"/>
</svg>
