<svg width="512" height="512" viewBox="0 0 512 512" fill="none">
    <path d="M312.358 199.565C306.293 193.464 299.568 188.056 292.309 183.44C273.08 171.127 250.726 164.584 227.893 164.584C196.202 164.525 165.798 177.117 143.428 199.565L34.9038 308.174C12.5718 330.549 0.0200211 360.865 2.47298e-05 392.477C-0.0419677 458.445 53.4004 511.957 119.369 511.999C151.011 512.109 181.386 499.577 203.748 477.189L293.332 387.605C294.96 385.991 295.869 383.79 295.856 381.498C295.829 376.786 291.987 372.989 287.274 373.016H283.862C265.145 373.082 246.596 369.487 229.259 362.437C226.064 361.122 222.393 361.864 219.96 364.313L155.544 428.814C135.542 448.816 103.111 448.816 83.1091 428.814C63.1067 408.811 63.1067 376.381 83.1091 356.379L192.061 247.513C212.047 227.552 244.424 227.552 264.411 247.513C277.88 260.19 298.89 260.19 312.359 247.513C318.154 241.713 321.667 234.021 322.256 225.842C322.879 216.069 319.275 206.498 312.358 199.565Z" fill="#6A4FFE"/>
    <path d="M476.936 34.9865C430.288 -11.6622 354.655 -11.6622 308.007 34.9865L218.508 124.399C216.05 126.869 215.341 130.583 216.716 133.785C218.075 136.995 221.25 139.056 224.736 138.989H227.892C246.587 138.955 265.107 142.577 282.41 149.654C285.605 150.969 289.276 150.227 291.71 147.777L355.954 83.6177C375.957 63.6153 408.387 63.6153 428.389 83.6177C448.392 103.62 448.392 136.05 428.389 156.053L348.361 235.995L347.678 236.763L319.694 264.577C299.707 284.539 267.33 284.539 247.344 264.577C233.874 251.9 212.864 251.9 199.395 264.577C193.563 270.421 190.047 278.181 189.498 286.418C188.874 296.192 192.479 305.763 199.395 312.697C209.271 322.614 220.824 330.701 233.522 336.585C235.314 337.438 237.106 338.121 238.897 338.889C240.689 339.657 242.566 340.254 244.357 340.936C246.149 341.619 248.026 342.216 249.817 342.728L254.851 344.093C258.264 344.946 261.677 345.629 265.175 346.226C269.388 346.851 273.631 347.25 277.887 347.42H283.859H284.371L289.49 346.823C291.367 346.738 293.329 346.312 295.548 346.312H298.449L304.335 345.459L307.066 344.947L312.014 343.923H312.953C333.91 338.659 353.047 327.808 368.324 312.526L476.933 203.916C523.585 157.267 523.585 81.6351 476.936 34.9865Z" fill="#6A4FFE"/>
</svg>
