<svg width="500" height="500" viewBox="0 0 500 500" fill="none" xmlns="http://www.w3.org/2000/svg">
<path d="M334.062 0C328.555 0.507813 324.492 5.42969 325 10.9375C325.508 16.4453 330.43 20.5078 335.938 20H465.625L256.875 229.062C253.906 231.484 252.539 235.352 253.398 239.102C254.258 242.813 257.187 245.742 260.898 246.602C264.648 247.461 268.516 246.094 270.938 243.125L480 34.375V164.062C479.961 167.656 481.836 171.016 484.961 172.852C488.086 174.648 491.914 174.648 495.039 172.852C498.164 171.016 500.039 167.656 500 164.062V0H335.938C335.625 0 335.312 0 335 0C334.688 0 334.375 0 334.062 0ZM20 100C14.7656 100 9.41406 101.836 5.625 105.625C1.83594 109.414 0 114.766 0 120V480C0 485.234 1.83594 490.586 5.625 494.375C9.41406 498.164 14.7656 500 20 500H380C385.234 500 390.586 498.164 394.375 494.375C398.164 490.586 400 485.234 400 480V180C400.039 176.406 398.164 173.047 395.039 171.211C391.914 169.414 388.086 169.414 384.961 171.211C381.836 173.047 379.961 176.406 380 180V480H20V120H320C323.594 120.039 326.953 118.164 328.789 115.039C330.586 111.914 330.586 108.086 328.789 104.961C326.953 101.836 323.594 99.9609 320 100H20Z" fill="#F73859"/>
</svg>
