<svg width="420" height="420" viewBox="0 0 420 420" fill="none" xmlns="http://www.w3.org/2000/svg">
<path d="M50 0C22.5048 0 0 22.5048 0 50V370C0 397.495 22.5048 420 50 420H370C397.495 420 420 397.495 420 370V50C420 22.5048 397.495 0 370 0H50ZM50 20H370C386.685 20 400 33.3152 400 50V370C400 386.685 386.685 400 370 400H50C33.3152 400 20 386.685 20 370V50C20 33.3152 33.3152 20 50 20ZM100 70.1172C89.0478 70.1172 79.1922 73.3908 71.8945 79.5312C64.5969 85.6717 60.1172 94.8451 60.1172 104.668C60.1172 123.34 76.3129 137.896 96.9141 139.336C96.9271 139.342 96.9401 139.349 96.9531 139.355C97.9348 139.69 98.963 139.868 100 139.883C122.73 139.883 139.883 123.961 139.883 104.668C139.881 104.492 139.874 104.316 139.863 104.141C138.846 85.1383 121.904 70.1172 100 70.1172ZM100 89.8828C113.922 89.8828 119.42 96.1004 120.02 104.922C119.898 113.484 114.601 120.117 100 120.117C86.1459 120.117 79.8828 113.022 79.8828 104.668C79.8828 100.491 81.407 97.343 84.6094 94.6484C87.8117 91.9539 92.9522 89.8828 100 89.8828ZM70 150C67.3479 150 64.8045 151.054 62.9292 152.929C61.0539 154.805 60.0003 157.348 60 160V350C60.0003 352.652 61.0539 355.195 62.9292 357.071C64.8045 358.946 67.3479 360 70 360H130C132.652 360 135.195 358.946 137.071 357.071C138.946 355.195 140 352.652 140 350V291.348V160C140 157.348 138.946 154.805 137.071 152.929C135.195 151.054 132.652 150 130 150H70ZM160 150C157.348 150 154.805 151.054 152.929 152.929C151.054 154.805 150 157.348 150 160V350C150 352.652 151.054 355.195 152.929 357.071C154.805 358.946 157.348 360 160 360H220C222.652 360 225.195 358.946 227.071 357.071C228.946 355.195 230 352.652 230 350V250C230 241.703 232.264 233.45 236.25 228.047C240.236 222.643 245.265 219.401 254.824 219.57C264.682 219.74 269.9 223.117 273.848 228.418C277.795 233.719 280 241.667 280 250V350C280 352.652 281.054 355.195 282.929 357.071C284.805 358.946 287.348 360 290 360H350C352.652 360 355.195 358.946 357.071 357.071C358.946 355.195 360 352.652 360 350V242.617C360 213.002 351.228 189.543 336.191 173.672C321.155 157.8 300.242 150 278.125 150C257.105 150 241.109 157.049 230 164.238V160C230 157.348 228.946 154.805 227.071 152.929C225.195 151.054 222.652 150 220 150H160ZM80 170H120V291.348V340H80V170ZM170 170H210V185.605C210.001 187.702 210.66 189.746 211.886 191.447C213.111 193.149 214.841 194.422 216.829 195.087C218.818 195.752 220.965 195.775 222.968 195.153C224.97 194.531 226.726 193.296 227.988 191.621C227.988 191.621 243.692 170 278.125 170C295.658 170 310.694 175.826 321.68 187.422C332.666 199.018 340 216.883 340 242.617V340H300V250C300 238.333 297.205 226.271 289.902 216.465C282.6 206.659 270.318 199.831 255.176 199.57C239.955 199.3 227.475 206.27 220.156 216.191C212.837 226.113 210 238.297 210 250V340H170V170Z" fill="#F73859"/>
</svg>
