<svg width="512" height="512" viewBox="0 0 512 512" fill="none" xmlns="http://www.w3.org/2000/svg">
<path d="M97.8261 296.96C88.8661 292.634 78.8651 290.133 68.2667 290.133C30.6261 290.133 0 320.759 0 358.4C0 396.041 30.6261 426.667 68.2667 426.667C91.8869 426.667 112.734 414.601 124.996 396.314L189.483 428.595C188.373 433.468 187.733 438.528 187.733 443.733C187.733 481.374 218.359 512 256 512C293.641 512 324.267 481.374 324.267 443.733C324.267 429.585 319.94 416.435 312.533 405.521L403.149 310.775C414.515 319.206 428.527 324.267 443.733 324.267C481.374 324.267 512 293.641 512 256C512 218.359 481.374 187.733 443.733 187.733C427.981 187.733 413.508 193.143 401.937 202.138L309.862 110.063C318.857 98.4917 324.267 84.0192 324.267 68.2667C324.267 30.6261 293.641 0 256 0C218.359 0 187.733 30.6261 187.733 68.2667C187.733 73.4549 188.365 78.4981 189.474 83.3621L128.956 105.412C117.606 83.3877 94.6944 68.2667 68.2667 68.2667C30.6261 68.2667 0 98.8928 0 136.533C0 174.174 30.6261 204.8 68.2667 204.8C77.9776 204.8 87.2021 202.735 95.5733 199.057L126.985 251.921L97.8261 296.96ZM68.2667 409.6C40.0299 409.6 17.0667 386.637 17.0667 358.4C17.0667 330.163 40.0299 307.2 68.2667 307.2C96.5035 307.2 119.467 330.163 119.467 358.4C119.467 386.637 96.5035 409.6 68.2667 409.6ZM132.599 381.022C135.1 373.931 136.533 366.336 136.533 358.4C136.533 337.468 127.044 318.729 112.171 306.202L136.713 268.297L210.705 392.806C204.476 398.353 199.262 404.992 195.396 412.459L132.599 381.022ZM256 136.533C271.753 136.533 286.225 131.123 297.796 122.129L389.879 214.212C384.358 221.312 380.228 229.513 377.847 238.438L324.241 231.066C324.233 230.844 324.267 230.622 324.267 230.4C324.267 192.759 293.641 162.133 256 162.133C232.38 162.133 211.524 174.199 199.27 192.486L189.09 187.401L226.449 129.707C235.401 134.033 245.402 136.533 256 136.533ZM264.533 376.055V298.069C292.267 294.588 314.829 274.432 321.894 247.962L375.501 255.334C375.501 255.556 375.467 255.778 375.467 256C375.467 272.299 381.218 287.258 390.784 299.008L301.184 392.695C291.14 383.795 278.502 377.813 264.533 376.055ZM256 179.2C284.237 179.2 307.2 202.163 307.2 230.4C307.2 258.637 284.237 281.6 256 281.6C227.763 281.6 204.8 258.637 204.8 230.4C204.8 202.163 227.763 179.2 256 179.2ZM191.667 207.778C189.167 214.869 187.733 222.464 187.733 230.4C187.733 265.148 213.845 293.854 247.467 298.078V376.064C239.377 377.079 231.74 379.503 224.785 383.095L147.063 252.305L179.755 201.822L191.667 207.778ZM256 494.933C227.763 494.933 204.8 471.97 204.8 443.733C204.8 415.497 227.763 392.533 256 392.533C284.237 392.533 307.2 415.497 307.2 443.733C307.2 471.97 284.237 494.933 256 494.933ZM443.733 204.8C471.97 204.8 494.933 227.763 494.933 256C494.933 284.237 471.97 307.2 443.733 307.2C415.497 307.2 392.533 284.237 392.533 256C392.533 227.763 415.497 204.8 443.733 204.8ZM256 17.0667C284.237 17.0667 307.2 40.0299 307.2 68.2667C307.2 96.5035 284.237 119.467 256 119.467C227.763 119.467 204.8 96.5035 204.8 68.2667C204.8 40.0299 227.763 17.0667 256 17.0667ZM195.311 99.3877C199.484 107.486 205.193 114.645 212.096 120.465L173.73 179.721L132.599 159.155C135.1 152.064 136.533 144.469 136.533 136.533C136.533 131.345 135.902 126.302 134.793 121.438L195.311 99.3877ZM17.0667 136.533C17.0667 108.297 40.0299 85.3333 68.2667 85.3333C96.5035 85.3333 119.467 108.297 119.467 136.533C119.467 164.77 96.5035 187.733 68.2667 187.733C40.0299 187.733 17.0667 164.77 17.0667 136.533ZM110.208 190.285C115.925 185.813 120.943 180.489 124.996 174.447L164.395 194.142L137.335 235.93L110.208 190.285Z" fill="#F73859"/>
</svg>
