<svg width="512" height="452" viewBox="0 0 512 452" fill="none">
    <path d="M202.01 328.613C200.076 328.613 198.128 327.948 196.538 326.594L141.84 280.019C139.953 278.41 138.868 276.061 138.868 273.58C138.868 271.104 139.958 268.755 141.84 267.146L196.538 220.571C200.09 217.542 205.425 217.972 208.453 221.523C211.477 225.08 211.052 230.415 207.496 233.438L160.359 273.58L207.496 313.722C211.052 316.75 211.477 322.085 208.453 325.637C206.779 327.604 204.401 328.613 202.01 328.613Z" fill="#EFEDFF"/>
    <path d="M309.991 328.613C307.599 328.613 305.222 327.604 303.552 325.637C300.524 322.085 300.953 316.75 304.505 313.722L351.642 273.58L304.505 233.438C300.953 230.415 300.524 225.08 303.552 221.523C306.576 217.972 311.915 217.542 315.462 220.571L370.161 267.146C372.047 268.755 373.132 271.104 373.132 273.58C373.132 276.061 372.047 278.41 370.161 280.019L315.462 326.594C313.873 327.948 311.925 328.613 309.991 328.613V328.613Z" fill="#EFEDFF"/>
    <path d="M236.637 363.547C236.056 363.547 235.472 363.486 234.882 363.363C230.316 362.401 227.391 357.915 228.354 353.349L262.443 191.495C263.405 186.929 267.887 184.005 272.457 184.967C277.023 185.929 279.948 190.41 278.986 194.981L244.896 356.835C244.056 360.816 240.547 363.547 236.637 363.547V363.547Z" fill="#EFEDFF"/>
    <path d="M455.245 451.726H56.7547C25.4623 451.726 0 426.269 0 394.972V56.7547C0 25.4623 25.4623 0 56.7547 0H455.245C486.538 0 512 25.4623 512 56.7547V394.972C512 426.269 486.538 451.726 455.245 451.726ZM56.7547 16.9057C34.783 16.9057 16.9057 34.783 16.9057 56.7547V394.972C16.9057 416.943 34.783 434.821 56.7547 434.821H455.245C477.217 434.821 495.094 416.943 495.094 394.972V56.7547C495.094 34.783 477.217 16.9057 455.245 16.9057H56.7547Z" fill="#EFEDFF"/>
    <path d="M503.547 135.354H8.45283C3.78302 135.354 0 131.571 0 126.901C0 122.236 3.78302 118.448 8.45283 118.448H503.547C508.217 118.448 512 122.236 512 126.901C512 131.571 508.217 135.354 503.547 135.354Z" fill="#EFEDFF"/>
    <path d="M144.424 94.9058C129.679 94.9058 117.674 82.901 117.674 68.1558C117.674 53.4058 129.679 41.4058 144.424 41.4058C159.174 41.4058 171.174 53.4058 171.174 68.1558C171.174 82.901 159.174 94.9058 144.424 94.9058ZM144.424 58.3114C139 58.3114 134.58 62.7265 134.58 68.1558C134.58 73.585 139 78.0001 144.424 78.0001C149.854 78.0001 154.269 73.585 154.269 68.1558C154.269 62.7265 149.854 58.3114 144.424 58.3114Z" fill="#EFEDFF"/>
    <path d="M62.2358 94.646C47.4858 94.646 35.4858 82.646 35.4858 67.896C35.4858 53.146 47.4858 41.146 62.2358 41.146C76.9858 41.146 88.9858 53.146 88.9858 67.896C88.9858 82.646 76.9858 94.646 62.2358 94.646ZM62.2358 58.0517C56.8113 58.0517 52.3915 62.4715 52.3915 67.896C52.3915 73.3252 56.8113 77.7403 62.2358 77.7403C67.6651 77.7403 72.0802 73.3252 72.0802 67.896C72.0802 62.4715 67.6651 58.0517 62.2358 58.0517Z" fill="#EFEDFF"/>
    <path d="M226.613 95.1603C211.868 95.1603 199.868 83.1603 199.868 68.4103C199.868 53.665 211.868 41.665 226.613 41.665C241.363 41.665 253.363 53.665 253.363 68.4103C253.363 83.1603 241.363 95.1603 226.613 95.1603ZM226.613 58.566C221.189 58.566 216.774 62.9811 216.774 68.4103C216.774 73.8396 221.189 78.2547 226.613 78.2547C232.043 78.2547 236.458 73.8396 236.458 68.4103C236.458 62.9811 232.043 58.566 226.613 58.566Z" fill="#EFEDFF"/>
</svg>
